# xmcd
#
# Track frame offsets:
#	150
#	14182
#	27220
#	40270
#	55032
#	68555
#	81370
#	94585
#	108515
#	123242
#	136367
#	149455
#	161862
#	175870
#	189705
#	202765
#	216610
#	228267
#	240520
#	252507
#
# Disc length: 3525 seconds
#
# Revision: 0
# Processed by: cddbd v1.4PL0 Copyright (c) Steve Scherf et al.
# Submitted via: MusicWizard 6.0.0
#
DISCID=200dc314
DTITLE=The Original Carter Family - Can The Circle Be Unbroken
DYEAR=2000
DGENRE=Hillbilly
TTITLE0=Can The Circle Be Unbroken  (Bye and Bye)
TTITLE1=Lulu Walls
TTITLE2=My Clinch Mountain Home
TTITLE3=Wildwood Flower
TTITLE4=Worried Man Blues
TTITLE5=Keep On The Sunny Side
TTITLE6=Gospel Ship
TTITLE7=My Texas Girl
TTITLE8=Sinking In The Lonesome Sea
TTITLE9=Cannon Ball Blues
TTITLE10=I'm Thinking Tonight Of My Blue Eyes
TTITLE11=River Of Jordan
TTITLE12=The Storms Are On The Ocean
TTITLE13=On The Rock Where Moses Stood
TTITLE14=The Little Black Train
TTITLE15=Single Girl, Married Girl
TTITLE16=Kissing Is A Crime
TTITLE17=Blackie's Gunman
TTITLE18=My Home Among The Hills
TTITLE19=Black Jack David
EXTD=(p)1935,1940 Sony Music Entertainment/Columbia/LEGACY\n(c)2000 Sony Music Entertainment Inc\n
EXTD=Compiled and Produced for Reissue by Lawrence Cohn\n
EXTT0=
EXTT1=
EXTT2=
EXTT3=
EXTT4=
EXTT5=
EXTT6=
EXTT7=
EXTT8=
EXTT9=
EXTT10=
EXTT11=
EXTT12=
EXTT13=
EXTT14=
EXTT15=
EXTT16=
EXTT17=
EXTT18=
EXTT19=
PLAYORDER=
